<?xml version="1.0" standalone="no"?>
<!DOCTYPE svg PUBLIC "-//W3C//DTD SVG 20010904//EN"
 "http://www.w3.org/TR/2001/REC-SVG-20010904/DTD/svg10.dtd">
<svg version="1.0" xmlns="http://www.w3.org/2000/svg"
 width="571.000000pt" height="54.000000pt" viewBox="0 0 571.000000 54.000000"
 preserveAspectRatio="xMidYMid meet">

<g transform="translate(0.000000,54.000000) scale(0.100000,-0.100000)"
fill="#000000" stroke="none">
<path d="M0 270 l0 -260 50 0 50 0 0 110 0 110 115 0 115 0 0 -110 0 -110 45
0 45 0 0 260 0 260 -45 0 -44 0 -3 -107 -3 -108 -112 -3 -113 -3 0 111 0 110
-50 0 -50 0 0 -260z"/>
<path d="M570 270 l0 -260 165 0 165 0 0 40 0 40 -120 0 -120 0 0 70 0 70 115
0 115 0 0 40 0 40 -115 0 -115 0 0 70 0 70 120 0 120 0 0 40 0 40 -165 0 -165
0 0 -260z"/>
<path d="M1040 270 l0 -260 155 0 155 0 0 40 0 40 -110 0 -110 0 0 220 0 220
-45 0 -45 0 0 -260z"/>
<path d="M1430 270 l0 -260 170 0 170 0 0 40 0 40 -120 0 -120 0 0 70 0 70
110 0 110 0 0 40 0 40 -110 0 -110 0 0 70 0 70 120 0 120 0 0 40 0 40 -170 0
-170 0 0 -260z"/>
<path d="M1900 270 l0 -260 45 0 45 0 0 186 c0 106 4 183 9 180 5 -3 59 -87
120 -186 l112 -180 49 0 50 0 0 260 0 260 -50 0 -50 0 0 -182 0 -183 -113 182
-112 183 -52 0 -53 0 0 -260z"/>
<path d="M2511 282 c-46 -136 -86 -253 -89 -260 -3 -8 10 -12 46 -12 l51 0 17
55 18 55 97 0 98 0 17 -55 18 -55 49 0 c36 0 48 3 45 14 -2 7 -39 124 -83 260
l-80 246 -60 0 -60 0 -84 -248z m208 -79 c1 -9 -20 -13 -70 -13 -53 0 -70 3
-67 13 3 6 20 57 38 112 l34 100 32 -100 c18 -55 33 -106 33 -112z"/>
<path d="M3180 270 l0 -260 45 0 45 0 0 197 c0 115 4 193 9 188 5 -6 39 -81
76 -168 68 -156 68 -157 100 -157 32 0 33 1 104 163 l71 162 0 -192 0 -193 50
0 50 0 0 260 0 261 -67 -3 -67 -3 -65 -142 c-37 -78 -69 -144 -72 -148 -3 -3
-37 62 -75 145 l-69 150 -67 0 -68 0 0 -260z"/>
<path d="M3880 270 l0 -260 165 0 165 0 0 40 0 40 -120 0 -120 0 0 70 0 70
115 0 115 0 0 40 0 40 -115 0 -115 0 0 70 0 70 120 0 120 0 0 40 0 40 -165 0
-165 0 0 -260z"/>
<path d="M4290 525 c0 -2 38 -69 85 -149 l85 -145 0 -111 0 -110 50 0 50 0 0
110 0 110 80 130 c115 189 110 170 46 170 l-54 0 -58 -100 c-32 -55 -61 -100
-64 -100 -3 0 -29 45 -58 100 l-53 100 -55 0 c-30 0 -54 -2 -54 -5z"/>
<path d="M4830 270 l0 -260 165 0 165 0 0 40 0 40 -120 0 -120 0 0 70 0 70
115 0 115 0 0 40 0 40 -115 0 -115 0 0 70 0 70 120 0 120 0 0 40 0 40 -165 0
-165 0 0 -260z"/>
<path d="M5300 265 l0 -265 45 0 45 0 0 105 0 105 38 0 c37 0 38 -1 95 -105
l59 -105 52 0 c29 0 55 3 59 6 3 3 -24 51 -61 107 -62 94 -65 101 -47 111 11
6 37 27 57 47 36 35 38 40 38 98 0 56 -3 64 -35 99 -45 51 -87 62 -229 62
l-116 0 0 -265z m240 172 c64 -32 59 -126 -7 -153 -20 -9 -57 -14 -86 -12
l-52 3 -3 88 -3 87 63 0 c35 0 74 -6 88 -13z"/>
</g>
</svg>
